<svg width="55" height="57" viewBox="0 0 55 57" fill="none" xmlns="http://www.w3.org/2000/svg">
<path d="M28.1222 7.00225e-05C24.8268 -0.0078324 21.8213 0.654539 18.824 1.27597L41.1635 20.8173L40.8563 3.64526C35.9654 0.879472 31.8569 0.00900319 28.1222 7.00225e-05ZM14.2037 3.19969C-1.37536 13.6614 -0.195791 24.124 0.182797 34.5857L24.8334 12.8236L14.2037 3.19969ZM45.0146 6.30987L45.1692 38.1397L53.6424 37.8426C57.5454 22.9114 52.5285 13.7966 45.0146 6.30987ZM11.2762 29.8489L1.261 39.1758C5.18197 47.7534 8.31097 50.2431 11.4289 52.6471L11.2761 29.8489H11.2762ZM16.5129 41.5433L16.3601 55.4602C37.8698 60.5769 46.002 52.1619 52.1023 41.6918L16.5128 41.5433L16.5129 41.5433Z" fill="white"/>
</svg>
